<svg xmlns="http://www.w3.org/2000/svg" xmlns:xlink="http://www.w3.org/1999/xlink" width="377" zoomAndPan="magnify" viewBox="0 0 283.5 283.500005" height="377" preserveAspectRatio="xMidYMid meet" version="1.0"><defs><g/><clipPath id="9a358e2403"><path d="M 29 23 L 253 23 L 253 260 L 29 260 Z M 29 23 " clip-rule="nonzero"/></clipPath><clipPath id="24ee03301d"><path d="M 16.425781 21.609375 L 243.96875 2.46875 L 265.746094 261.34375 L 38.203125 280.488281 Z M 16.425781 21.609375 " clip-rule="nonzero"/></clipPath><clipPath id="653e01bd0d"><path d="M 16.425781 21.609375 L 243.96875 2.46875 L 265.746094 261.34375 L 38.203125 280.488281 Z M 16.425781 21.609375 " clip-rule="nonzero"/></clipPath><clipPath id="a9b1d25130"><path d="M 114 121 L 155 121 L 155 176 L 114 176 Z M 114 121 " clip-rule="nonzero"/></clipPath><clipPath id="98ae8dcb7d"><path d="M 141.882812 121.484375 L 154.191406 128.914062 L 126.363281 175.023438 L 114.054688 167.59375 Z M 141.882812 121.484375 " clip-rule="nonzero"/></clipPath><clipPath id="9989f935a6"><path d="M 141.882812 121.484375 L 154.191406 128.914062 L 126.375 175.003906 L 114.066406 167.574219 Z M 141.882812 121.484375 " clip-rule="nonzero"/></clipPath><clipPath id="7ef3e81300"><path d="M 115 128 L 143 128 L 143 157 L 115 157 Z M 115 128 " clip-rule="nonzero"/></clipPath><clipPath id="ebb4e10e8b"><path d="M 125.664062 128.824219 L 142.4375 138.945312 L 132.117188 156.046875 L 115.347656 145.925781 Z M 125.664062 128.824219 " clip-rule="nonzero"/></clipPath><clipPath id="1a5d8da1f1"><path d="M 125.664062 128.824219 L 142.4375 138.945312 L 132.125 156.035156 L 115.351562 145.914062 Z M 125.664062 128.824219 " clip-rule="nonzero"/></clipPath><clipPath id="1a3f3bb630"><path d="M 134 129 L 161 129 L 161 156 L 134 156 Z M 134 129 " clip-rule="nonzero"/></clipPath><clipPath id="506578500f"><path d="M 143.34375 129.738281 L 160.160156 139.882812 L 150.945312 155.148438 L 134.132812 145 Z M 143.34375 129.738281 " clip-rule="nonzero"/></clipPath><clipPath id="089a009048"><path d="M 143.34375 129.738281 L 160.117188 139.859375 L 150.902344 155.125 L 134.132812 145 Z M 143.34375 129.738281 " clip-rule="nonzero"/></clipPath></defs><path fill="#ffffff" d="M 0 0 L 283 0 L 283 283 L 0 283 Z M 0 0 " fill-opacity="1" fill-rule="nonzero"/><path fill="#a21e1e" d="M 0 0 L 283 0 L 283 283 L 0 283 Z M 0 0 " fill-opacity="1" fill-rule="nonzero"/><g clip-path="url(#9a358e2403)"><g clip-path="url(#24ee03301d)"><g clip-path="url(#653e01bd0d)"><path fill="#fff6f2" d="M 102.882812 30.066406 C 104.6875 29.449219 106.507812 28.875 108.339844 28.347656 C 110.167969 27.820312 112.011719 27.335938 113.867188 26.894531 C 115.722656 26.457031 117.589844 26.0625 119.460938 25.714844 C 121.335938 25.363281 123.21875 25.0625 125.109375 24.804688 C 126.996094 24.546875 128.890625 24.335938 130.789062 24.171875 C 132.691406 24.003906 134.59375 23.886719 136.496094 23.8125 C 138.402344 23.742188 140.308594 23.714844 142.214844 23.734375 C 144.121094 23.753906 146.027344 23.820312 147.929688 23.933594 C 149.832031 24.042969 151.730469 24.203125 153.628906 24.40625 C 155.523438 24.613281 157.414062 24.863281 159.296875 25.160156 C 161.179688 25.457031 163.054688 25.796875 164.921875 26.183594 C 166.789062 26.574219 168.644531 27.003906 170.488281 27.484375 C 172.335938 27.960938 174.167969 28.484375 175.988281 29.050781 C 177.808594 29.617188 179.613281 30.226562 181.40625 30.882812 C 183.195312 31.535156 184.96875 32.234375 186.726562 32.972656 C 188.484375 33.714844 190.222656 34.496094 191.941406 35.324219 C 193.660156 36.148438 195.355469 37.015625 197.03125 37.921875 C 198.710938 38.828125 200.363281 39.777344 201.992188 40.765625 C 203.625 41.753906 205.230469 42.78125 206.808594 43.847656 C 208.390625 44.914062 209.945312 46.015625 211.472656 47.15625 C 213 48.300781 214.496094 49.476562 215.96875 50.691406 C 217.4375 51.90625 218.875 53.15625 220.285156 54.441406 C 221.695312 55.722656 223.070312 57.042969 224.417969 58.394531 C 225.761719 59.742188 227.074219 61.125 228.351562 62.542969 C 229.628906 63.957031 230.871094 65.402344 232.078125 66.878906 C 233.285156 68.351562 234.457031 69.855469 235.59375 71.386719 C 236.726562 72.921875 237.824219 74.480469 238.882812 76.066406 C 239.941406 77.648438 240.960938 79.261719 241.941406 80.894531 C 242.921875 82.53125 243.863281 84.1875 244.761719 85.867188 C 245.664062 87.550781 246.523438 89.25 247.339844 90.972656 C 248.15625 92.695312 248.929688 94.4375 249.664062 96.199219 C 250.398438 97.957031 251.085938 99.734375 251.734375 101.527344 C 251.972656 102.191406 252.207031 102.867188 252.441406 103.554688 L 250.699219 104.332031 C 250.457031 103.609375 250.207031 102.890625 249.945312 102.167969 C 249.304688 100.390625 248.621094 98.628906 247.894531 96.886719 C 247.167969 95.140625 246.402344 93.417969 245.589844 91.710938 C 244.777344 90.003906 243.925781 88.316406 243.03125 86.652344 C 242.140625 84.988281 241.207031 83.34375 240.230469 81.726562 C 239.257812 80.105469 238.246094 78.511719 237.191406 76.941406 C 236.140625 75.371094 235.050781 73.828125 233.921875 72.3125 C 232.796875 70.796875 231.632812 69.308594 230.433594 67.847656 C 229.230469 66.390625 227.996094 64.960938 226.726562 63.5625 C 225.457031 62.164062 224.152344 60.796875 222.8125 59.460938 C 221.476562 58.125 220.109375 56.824219 218.707031 55.554688 C 217.304688 54.289062 215.875 53.054688 214.414062 51.859375 C 212.953125 50.660156 211.460938 49.5 209.945312 48.375 C 208.425781 47.25 206.878906 46.160156 205.308594 45.113281 C 203.738281 44.0625 202.140625 43.050781 200.519531 42.082031 C 198.898438 41.109375 197.253906 40.179688 195.589844 39.289062 C 193.921875 38.398438 192.234375 37.546875 190.527344 36.742188 C 188.820312 35.933594 187.089844 35.167969 185.347656 34.441406 C 183.601562 33.71875 181.839844 33.039062 180.058594 32.402344 C 178.28125 31.765625 176.488281 31.171875 174.679688 30.621094 C 172.871094 30.074219 171.050781 29.566406 169.21875 29.109375 C 167.386719 28.648438 165.542969 28.234375 163.6875 27.863281 C 161.835938 27.492188 159.976562 27.167969 158.105469 26.890625 C 156.238281 26.609375 154.363281 26.378906 152.480469 26.191406 C 150.601562 26.003906 148.71875 25.863281 146.832031 25.765625 C 144.945312 25.671875 143.054688 25.625 141.164062 25.621094 C 139.277344 25.617188 137.386719 25.664062 135.5 25.753906 C 133.613281 25.84375 131.726562 25.980469 129.847656 26.160156 C 127.964844 26.34375 126.089844 26.570312 124.222656 26.847656 C 122.351562 27.121094 120.488281 27.441406 118.636719 27.804688 C 116.78125 28.171875 114.9375 28.582031 113.105469 29.035156 C 111.269531 29.492188 109.449219 29.992188 107.640625 30.539062 C 105.832031 31.082031 104.035156 31.671875 102.253906 32.304688 C 102.480469 31.5625 102.691406 30.824219 102.886719 30.074219 Z M 31.460938 178.875 C 31.664062 179.46875 31.867188 180.054688 32.082031 180.644531 C 32.722656 182.425781 33.40625 184.191406 34.136719 185.941406 C 34.867188 187.691406 35.636719 189.417969 36.449219 191.128906 C 37.261719 192.839844 38.117188 194.53125 39.015625 196.199219 C 39.910156 197.867188 40.847656 199.515625 41.824219 201.136719 C 42.804688 202.761719 43.820312 204.359375 44.875 205.929688 C 45.929688 207.503906 47.023438 209.050781 48.15625 210.570312 C 49.289062 212.089844 50.457031 213.578125 51.660156 215.042969 C 52.867188 216.503906 54.105469 217.933594 55.378906 219.335938 C 56.65625 220.738281 57.964844 222.105469 59.304688 223.441406 C 60.648438 224.78125 62.023438 226.082031 63.429688 227.351562 C 64.835938 228.621094 66.269531 229.855469 67.738281 231.054688 C 69.203125 232.253906 70.699219 233.414062 72.222656 234.542969 C 73.746094 235.667969 75.296875 236.753906 76.875 237.804688 C 78.453125 238.851562 80.054688 239.863281 81.679688 240.835938 C 83.308594 241.804688 84.957031 242.734375 86.628906 243.625 C 88.300781 244.515625 89.996094 245.363281 91.710938 246.167969 C 93.421875 246.976562 95.15625 247.742188 96.90625 248.460938 C 98.660156 249.183594 100.425781 249.863281 102.210938 250.496094 C 103.996094 251.132812 105.796875 251.722656 107.609375 252.269531 C 109.421875 252.816406 111.25 253.316406 113.089844 253.773438 C 114.925781 254.230469 116.773438 254.644531 118.632812 255.007812 C 120.492188 255.375 122.359375 255.695312 124.234375 255.972656 C 126.109375 256.246094 127.988281 256.472656 129.875 256.65625 C 131.757812 256.839844 133.648438 256.976562 135.539062 257.0625 C 137.433594 257.152344 139.324219 257.195312 141.21875 257.195312 C 143.113281 257.191406 145.007812 257.140625 146.898438 257.042969 C 148.792969 256.949219 150.679688 256.804688 152.566406 256.617188 C 154.449219 256.429688 156.328125 256.191406 158.203125 255.910156 C 160.074219 255.628906 161.941406 255.304688 163.796875 254.929688 C 165.65625 254.558594 167.503906 254.140625 169.339844 253.675781 C 171.175781 253.214844 173 252.707031 174.8125 252.152344 C 176.625 251.601562 178.421875 251.003906 180.203125 250.363281 C 179.96875 251.101562 179.746094 251.847656 179.542969 252.601562 C 177.738281 253.226562 175.917969 253.808594 174.085938 254.34375 C 172.25 254.878906 170.40625 255.371094 168.546875 255.820312 C 166.6875 256.265625 164.820312 256.667969 162.941406 257.023438 C 161.066406 257.378906 159.179688 257.6875 157.289062 257.953125 C 155.394531 258.214844 153.496094 258.433594 151.59375 258.605469 C 149.691406 258.777344 147.785156 258.902344 145.875 258.980469 C 143.964844 259.058594 142.054688 259.089844 140.144531 259.078125 C 138.234375 259.0625 136.324219 259 134.417969 258.894531 C 132.507812 258.785156 130.605469 258.632812 128.703125 258.433594 C 126.804688 258.234375 124.910156 257.988281 123.019531 257.695312 C 121.132812 257.402344 119.253906 257.0625 117.378906 256.679688 C 115.507812 256.296875 113.648438 255.867188 111.796875 255.390625 C 109.945312 254.917969 108.105469 254.398438 106.28125 253.835938 C 104.457031 253.269531 102.644531 252.660156 100.847656 252.007812 C 99.050781 251.355469 97.273438 250.660156 95.511719 249.921875 C 93.75 249.183594 92.003906 248.402344 90.28125 247.578125 C 88.558594 246.753906 86.855469 245.890625 85.171875 244.980469 C 83.488281 244.074219 81.832031 243.128906 80.195312 242.140625 C 78.558594 241.152344 76.949219 240.125 75.363281 239.058594 C 73.777344 237.996094 72.21875 236.890625 70.683594 235.75 C 69.152344 234.605469 67.648438 233.425781 66.175781 232.210938 C 64.699219 230.996094 63.253906 229.746094 61.839844 228.460938 C 60.425781 227.175781 59.046875 225.855469 57.695312 224.503906 C 56.347656 223.152344 55.03125 221.765625 53.75 220.347656 C 52.464844 218.933594 51.21875 217.484375 50.007812 216.007812 C 48.796875 214.53125 47.621094 213.023438 46.484375 211.488281 C 45.34375 209.953125 44.246094 208.390625 43.183594 206.804688 C 42.121094 205.214844 41.097656 203.601562 40.113281 201.964844 C 39.128906 200.324219 38.1875 198.664062 37.285156 196.980469 C 36.378906 195.296875 35.519531 193.589844 34.699219 191.863281 C 33.878906 190.136719 33.101562 188.394531 32.367188 186.628906 C 31.632812 184.863281 30.941406 183.085938 30.292969 181.285156 C 30.101562 180.746094 29.910156 180.199219 29.722656 179.65625 Z M 31.460938 178.875 " fill-opacity="1" fill-rule="evenodd"/></g></g></g><g fill="#fff6f2" fill-opacity="1"><g transform="translate(63.443676, 183.241815)"><g/></g></g><g fill="#fff6f2" fill-opacity="1"><g transform="translate(58.452545, 177.983326)"><g><path d="M -2.671875 -3.5 L -1.984375 -2.59375 L -9.03125 2.796875 L -7.125 5.296875 L -7.9375 5.921875 L -12.453125 0.015625 L -11.640625 -0.609375 L -9.71875 1.890625 Z M -2.671875 -3.5 "/></g></g></g><g fill="#fff6f2" fill-opacity="1"><g transform="translate(51.815196, 169.022293)"><g><path d="M -4.203125 -7.8125 L -3.671875 -6.8125 L -7.765625 -4.609375 L -5.28125 -0.015625 L -1.1875 -2.21875 L -0.640625 -1.203125 L -9.359375 3.484375 L -9.90625 2.46875 L -6.203125 0.46875 L -8.6875 -4.125 L -12.390625 -2.125 L -12.921875 -3.125 Z M -4.203125 -7.8125 "/></g></g></g><g fill="#fff6f2" fill-opacity="1"><g transform="translate(45.655639, 156.784449)"><g><path d="M -2.25 -6.515625 L -0.453125 -1.28125 L -9.8125 1.96875 L -11.609375 -3.265625 L -10.640625 -3.609375 L -9.21875 0.53125 L -6.203125 -0.515625 L -7.546875 -4.40625 L -6.578125 -4.734375 L -5.234375 -0.84375 L -1.796875 -2.03125 L -3.21875 -6.171875 Z M -2.25 -6.515625 "/></g></g></g><g fill="#fff6f2" fill-opacity="1"><g transform="translate(42.261159, 145.954098)"><g/></g></g><g fill="#fff6f2" fill-opacity="1"><g transform="translate(40.81095, 138.84813)"><g><path d="M -3.28125 -6.671875 C -2.414062 -6.753906 -1.707031 -6.503906 -1.15625 -5.921875 C -0.613281 -5.335938 -0.289062 -4.503906 -0.1875 -3.421875 C -0.0703125 -2.265625 -0.132812 -1.351562 -0.375 -0.6875 L -1.484375 -0.578125 C -1.359375 -1.003906 -1.269531 -1.457031 -1.21875 -1.9375 C -1.164062 -2.425781 -1.160156 -2.90625 -1.203125 -3.375 C -1.273438 -4.144531 -1.472656 -4.703125 -1.796875 -5.046875 C -2.117188 -5.398438 -2.539062 -5.554688 -3.0625 -5.515625 C -3.40625 -5.472656 -3.679688 -5.375 -3.890625 -5.21875 C -4.097656 -5.0625 -4.273438 -4.816406 -4.421875 -4.484375 C -4.578125 -4.148438 -4.742188 -3.644531 -4.921875 -2.96875 C -5.148438 -2.007812 -5.46875 -1.3125 -5.875 -0.875 C -6.289062 -0.445312 -6.863281 -0.195312 -7.59375 -0.125 C -8.34375 -0.0507812 -8.972656 -0.273438 -9.484375 -0.796875 C -9.992188 -1.328125 -10.289062 -2.066406 -10.375 -3.015625 C -10.46875 -3.984375 -10.375 -4.898438 -10.09375 -5.765625 L -9.078125 -5.5 C -9.328125 -4.65625 -9.414062 -3.847656 -9.34375 -3.078125 C -9.289062 -2.472656 -9.117188 -2.007812 -8.828125 -1.6875 C -8.535156 -1.375 -8.15625 -1.238281 -7.6875 -1.28125 C -7.34375 -1.3125 -7.066406 -1.398438 -6.859375 -1.546875 C -6.660156 -1.691406 -6.484375 -1.925781 -6.328125 -2.25 C -6.171875 -2.570312 -6.015625 -3.050781 -5.859375 -3.6875 C -5.585938 -4.75 -5.257812 -5.492188 -4.875 -5.921875 C -4.488281 -6.359375 -3.957031 -6.609375 -3.28125 -6.671875 Z M -3.28125 -6.671875 "/></g></g></g><g fill="#fff6f2" fill-opacity="1"><g transform="translate(39.972341, 127.754526)"><g><path d="M -8.6875 -6.09375 C -8.75 -5.007812 -8.4375 -4.128906 -7.75 -3.453125 C -7.0625 -2.785156 -6.09375 -2.414062 -4.84375 -2.34375 C -3.550781 -2.28125 -2.53125 -2.53125 -1.78125 -3.09375 C -1.039062 -3.664062 -0.640625 -4.507812 -0.578125 -5.625 C -0.546875 -6.3125 -0.628906 -7.101562 -0.828125 -8 L 0.1875 -7.953125 C 0.40625 -7.253906 0.488281 -6.398438 0.4375 -5.390625 C 0.351562 -3.941406 -0.148438 -2.84375 -1.078125 -2.09375 C -2.003906 -1.351562 -3.285156 -1.023438 -4.921875 -1.109375 C -5.929688 -1.171875 -6.804688 -1.410156 -7.546875 -1.828125 C -8.296875 -2.253906 -8.859375 -2.835938 -9.234375 -3.578125 C -9.609375 -4.328125 -9.769531 -5.179688 -9.71875 -6.140625 C -9.664062 -7.179688 -9.429688 -8.082031 -9.015625 -8.84375 L -8.03125 -8.3125 C -8.425781 -7.582031 -8.644531 -6.84375 -8.6875 -6.09375 Z M -8.6875 -6.09375 "/></g></g></g><g fill="#fff6f2" fill-opacity="1"><g transform="translate(40.912168, 115.558442)"><g><path d="M 1.59375 -7.421875 L -1.734375 -6.875 L -2.578125 -3 L 0.25 -1.140625 L 0 0 L -8.90625 -5.921875 L -8.703125 -6.875 L 1.84375 -8.578125 Z M -2.828125 -6.734375 L -6.078125 -6.265625 C -6.492188 -6.203125 -6.992188 -6.15625 -7.578125 -6.125 C -7.160156 -5.925781 -6.722656 -5.679688 -6.265625 -5.390625 L -3.5 -3.609375 Z M -2.828125 -6.734375 "/></g></g></g><g fill="#fff6f2" fill-opacity="1"><g transform="translate(43.765226, 103.63189)"><g><path d="M -2.9375 -3.828125 L 0.90625 -2.34375 L 0.484375 -1.265625 L -8.765625 -4.828125 L -7.78125 -7.375 C -7.34375 -8.507812 -6.800781 -9.257812 -6.15625 -9.625 C -5.507812 -10 -4.753906 -10.019531 -3.890625 -9.6875 C -2.660156 -9.207031 -2.070312 -8.273438 -2.125 -6.890625 L 3 -7.78125 L 2.515625 -6.515625 L -2.203125 -5.75 Z M -3.859375 -4.1875 L -3.296875 -5.65625 C -3.003906 -6.414062 -2.9375 -7.03125 -3.09375 -7.5 C -3.257812 -7.96875 -3.644531 -8.316406 -4.25 -8.546875 C -4.863281 -8.785156 -5.375 -8.773438 -5.78125 -8.515625 C -6.1875 -8.265625 -6.546875 -7.742188 -6.859375 -6.953125 L -7.390625 -5.546875 Z M -3.859375 -4.1875 "/></g></g></g><g fill="#fff6f2" fill-opacity="1"><g transform="translate(48.40518, 92.459268)"><g><path d="M 0.671875 -1.1875 L -7.953125 -6.0625 L -7.390625 -7.0625 L 0.328125 -2.703125 L 2.484375 -6.515625 L 3.390625 -6 Z M 0.671875 -1.1875 "/></g></g></g><g fill="#fff6f2" fill-opacity="1"><g transform="translate(53.897731, 83.220395)"><g><path d="M 4.203125 -5.453125 L 0.828125 -1.078125 L -7.015625 -7.125 L -3.640625 -11.5 L -2.828125 -10.859375 L -5.5 -7.40625 L -2.96875 -5.46875 L -0.453125 -8.71875 L 0.34375 -8.09375 L -2.171875 -4.84375 L 0.71875 -2.625 L 3.390625 -6.078125 Z M 4.203125 -5.453125 "/></g></g></g><g fill="#fff6f2" fill-opacity="1"><g transform="translate(60.961162, 74.464366)"><g><path d="M 3.15625 -3.0625 L 2.34375 -2.28125 L -3.84375 -8.65625 L -6.09375 -6.46875 L -6.8125 -7.203125 L -1.484375 -12.359375 L -0.765625 -11.625 L -3.03125 -9.4375 Z M 3.15625 -3.0625 "/></g></g></g><g fill="#fff6f2" fill-opacity="1"><g transform="translate(69.309571, 66.832327)"><g/></g></g><g fill="#fff6f2" fill-opacity="1"><g transform="translate(75.044971, 62.490621)"><g><path d="M 2.40625 -7.34375 L 5.328125 -9 L 7.703125 -4.8125 C 7.335938 -4.414062 6.9375 -4.039062 6.5 -3.6875 C 6.070312 -3.34375 5.550781 -3 4.9375 -2.65625 C 3.632812 -1.90625 2.394531 -1.710938 1.21875 -2.078125 C 0.0507812 -2.453125 -0.925781 -3.335938 -1.71875 -4.734375 C -2.226562 -5.628906 -2.492188 -6.515625 -2.515625 -7.390625 C -2.535156 -8.265625 -2.304688 -9.070312 -1.828125 -9.8125 C -1.359375 -10.550781 -0.671875 -11.175781 0.234375 -11.6875 C 1.148438 -12.207031 2.097656 -12.53125 3.078125 -12.65625 L 3.1875 -11.53125 C 2.226562 -11.425781 1.394531 -11.171875 0.6875 -10.765625 C -0.363281 -10.171875 -1.003906 -9.390625 -1.234375 -8.421875 C -1.472656 -7.460938 -1.28125 -6.429688 -0.65625 -5.328125 C 0.0078125 -4.160156 0.796875 -3.441406 1.703125 -3.171875 C 2.609375 -2.898438 3.609375 -3.070312 4.703125 -3.6875 C 5.304688 -4.03125 5.859375 -4.429688 6.359375 -4.890625 L 4.84375 -7.53125 L 2.90625 -6.4375 Z M 2.40625 -7.34375 "/></g></g></g><g fill="#fff6f2" fill-opacity="1"><g transform="translate(86.986602, 56.093411)"><g><path d="M 0.9375 -4.75 L 2.359375 -0.875 L 1.28125 -0.46875 L -2.140625 -9.765625 L 0.40625 -10.703125 C 1.550781 -11.128906 2.472656 -11.222656 3.171875 -10.984375 C 3.878906 -10.742188 4.394531 -10.1875 4.71875 -9.3125 C 5.164062 -8.082031 4.847656 -7.019531 3.765625 -6.125 L 7.828125 -2.890625 L 6.546875 -2.421875 L 2.875 -5.453125 Z M 0.59375 -5.671875 L 2.078125 -6.21875 C 2.835938 -6.5 3.34375 -6.851562 3.59375 -7.28125 C 3.84375 -7.71875 3.851562 -8.238281 3.625 -8.84375 C 3.394531 -9.457031 3.046875 -9.832031 2.578125 -9.96875 C 2.117188 -10.101562 1.488281 -10.023438 0.6875 -9.734375 L -0.71875 -9.21875 Z M 0.59375 -5.671875 "/></g></g></g><g fill="#fff6f2" fill-opacity="1"><g transform="translate(98.329188, 52.12545)"><g><path d="M 8.875 -6.71875 C 9.164062 -5.15625 9 -3.851562 8.375 -2.8125 C 7.757812 -1.769531 6.75 -1.113281 5.34375 -0.84375 C 3.914062 -0.582031 2.726562 -0.816406 1.78125 -1.546875 C 0.832031 -2.285156 0.207031 -3.457031 -0.09375 -5.0625 C -0.382812 -6.632812 -0.222656 -7.929688 0.390625 -8.953125 C 1.015625 -9.972656 2.046875 -10.617188 3.484375 -10.890625 C 4.890625 -11.148438 6.066406 -10.90625 7.015625 -10.15625 C 7.960938 -9.414062 8.582031 -8.269531 8.875 -6.71875 Z M 1.125 -5.265625 C 1.363281 -3.941406 1.828125 -2.988281 2.515625 -2.40625 C 3.210938 -1.832031 4.09375 -1.644531 5.15625 -1.84375 C 6.238281 -2.050781 6.988281 -2.546875 7.40625 -3.328125 C 7.832031 -4.117188 7.925781 -5.175781 7.6875 -6.5 C 7.4375 -7.800781 6.972656 -8.738281 6.296875 -9.3125 C 5.617188 -9.882812 4.742188 -10.070312 3.671875 -9.875 C 2.597656 -9.664062 1.84375 -9.164062 1.40625 -8.375 C 0.96875 -7.59375 0.875 -6.554688 1.125 -5.265625 Z M 1.125 -5.265625 "/></g></g></g><g fill="#fff6f2" fill-opacity="1"><g transform="translate(112.343234, 49.8479)"><g><path d="M 8.78125 -9.96875 L 8.8125 -3.5625 C 8.820312 -2.425781 8.488281 -1.53125 7.8125 -0.875 C 7.132812 -0.226562 6.195312 0.0976562 5 0.109375 C 3.8125 0.117188 2.890625 -0.195312 2.234375 -0.84375 C 1.578125 -1.5 1.242188 -2.394531 1.234375 -3.53125 L 1.203125 -9.921875 L 2.34375 -9.921875 L 2.390625 -3.453125 C 2.390625 -2.628906 2.617188 -2 3.078125 -1.5625 C 3.535156 -1.125 4.203125 -0.90625 5.078125 -0.90625 C 5.910156 -0.914062 6.550781 -1.140625 7 -1.578125 C 7.445312 -2.023438 7.671875 -2.664062 7.671875 -3.5 L 7.625 -9.953125 Z M 8.78125 -9.96875 "/></g></g></g><g fill="#fff6f2" fill-opacity="1"><g transform="translate(125.892097, 50.106684)"><g><path d="M 8.640625 -5.75 C 8.484375 -4.757812 8.023438 -4.046875 7.265625 -3.609375 C 6.515625 -3.179688 5.503906 -3.066406 4.234375 -3.265625 L 3.09375 -3.453125 L 2.484375 0.390625 L 1.34375 0.21875 L 2.890625 -9.5625 L 5.421875 -9.171875 C 7.867188 -8.785156 8.941406 -7.644531 8.640625 -5.75 Z M 3.25 -4.4375 L 4.265625 -4.28125 C 5.273438 -4.113281 6.03125 -4.15625 6.53125 -4.40625 C 7.03125 -4.664062 7.335938 -5.160156 7.453125 -5.890625 C 7.554688 -6.535156 7.421875 -7.046875 7.046875 -7.421875 C 6.671875 -7.804688 6.035156 -8.066406 5.140625 -8.203125 L 3.875 -8.40625 Z M 3.25 -4.4375 "/></g></g></g><g fill="#fff5ea" fill-opacity="1"><g transform="translate(232.532537, 121.99238)"><g><path d="M 2.40625 8.546875 L 2.09375 7.4375 L 6.578125 6.171875 L 5.171875 1.15625 L 0.6875 2.421875 L 0.375 1.3125 L 9.90625 -1.375 L 10.21875 -0.265625 L 6.15625 0.875 L 7.5625 5.890625 L 11.625 4.75 L 11.9375 5.859375 Z M 2.40625 8.546875 "/></g></g></g><g fill="#fff5ea" fill-opacity="1"><g transform="translate(235.875167, 135.265569)"><g><path d="M 0.78125 6.84375 L 0.15625 1.34375 L 10 0.21875 L 10.625 5.71875 L 9.59375 5.828125 L 9.09375 1.484375 L 5.9375 1.84375 L 6.40625 5.921875 L 5.390625 6.046875 L 4.921875 1.96875 L 1.3125 2.375 L 1.8125 6.71875 Z M 0.78125 6.84375 "/></g></g></g><g fill="#fff5ea" fill-opacity="1"><g transform="translate(236.929908, 146.436263)"><g><path d="M 4.03125 2.65625 L -0.09375 2.515625 L -0.046875 1.359375 L 9.859375 1.703125 L 9.765625 4.421875 C 9.722656 5.640625 9.457031 6.53125 8.96875 7.09375 C 8.488281 7.65625 7.78125 7.921875 6.84375 7.890625 C 5.53125 7.847656 4.664062 7.15625 4.25 5.8125 L -0.296875 8.34375 L -0.25 6.984375 L 3.96875 4.71875 Z M 5.015625 2.6875 L 4.96875 4.265625 C 4.9375 5.078125 5.070312 5.679688 5.375 6.078125 C 5.6875 6.472656 6.164062 6.679688 6.8125 6.703125 C 7.46875 6.722656 7.945312 6.546875 8.25 6.171875 C 8.550781 5.796875 8.71875 5.179688 8.75 4.328125 L 8.796875 2.828125 Z M 5.015625 2.6875 "/></g></g></g><g fill="#fff5ea" fill-opacity="1"><g transform="translate(236.210316, 158.490403)"><g><path d="M -1.265625 6.765625 L -0.25 1.34375 L 9.484375 3.171875 L 8.46875 8.59375 L 7.453125 8.390625 L 8.25 4.09375 L 5.125 3.515625 L 4.375 7.5625 L 3.375 7.375 L 4.125 3.328125 L 0.546875 2.65625 L -0.25 6.953125 Z M -1.265625 6.765625 "/></g></g></g><g fill="#fff5ea" fill-opacity="1"><g transform="translate(233.794298, 169.57223)"><g/></g></g><g fill="#fff5ea" fill-opacity="1"><g transform="translate(231.51601, 176.462304)"><g><path d="M -1.03125 2.296875 L -0.5625 1.234375 L 8.484375 5.28125 L 6.234375 10.34375 L 5.296875 9.921875 L 7.078125 5.921875 L 3.765625 4.4375 L 2.09375 8.1875 L 1.15625 7.78125 L 2.828125 4.03125 Z M -1.03125 2.296875 "/></g></g></g><g fill="#fff5ea" fill-opacity="1"><g transform="translate(227.057533, 186.112026)"><g><path d="M -1.296875 11.046875 C -2.617188 10.179688 -3.441406 9.160156 -3.765625 7.984375 C -4.097656 6.816406 -3.875 5.632812 -3.09375 4.4375 C -2.289062 3.21875 -1.296875 2.519531 -0.109375 2.34375 C 1.066406 2.175781 2.335938 2.539062 3.703125 3.4375 C 5.046875 4.3125 5.875 5.328125 6.1875 6.484375 C 6.5 7.640625 6.253906 8.828125 5.453125 10.046875 C 4.671875 11.242188 3.679688 11.925781 2.484375 12.09375 C 1.285156 12.269531 0.0234375 11.921875 -1.296875 11.046875 Z M 3.03125 4.4375 C 1.90625 3.707031 0.894531 3.390625 0 3.484375 C -0.894531 3.585938 -1.640625 4.09375 -2.234375 5 C -2.835938 5.925781 -3 6.8125 -2.71875 7.65625 C -2.445312 8.507812 -1.75 9.300781 -0.625 10.03125 C 0.488281 10.769531 1.484375 11.09375 2.359375 11 C 3.234375 10.90625 3.972656 10.398438 4.578125 9.484375 C 5.171875 8.566406 5.335938 7.675781 5.078125 6.8125 C 4.816406 5.957031 4.132812 5.164062 3.03125 4.4375 Z M 3.03125 4.4375 "/></g></g></g><g fill="#fff5ea" fill-opacity="1"><g transform="translate(218.944689, 197.791497)"><g><path d="M 1.296875 4.65625 L -1.71875 1.84375 L -0.921875 1 L 6.328125 7.75 L 4.46875 9.734375 C 3.644531 10.628906 2.863281 11.128906 2.125 11.234375 C 1.394531 11.335938 0.6875 11.070312 0 10.4375 C -0.957031 9.539062 -1.148438 8.453125 -0.578125 7.171875 L -5.671875 6.109375 L -4.75 5.109375 L -0.09375 6.171875 Z M 2.03125 5.328125 L 0.96875 6.484375 C 0.414062 7.078125 0.125 7.625 0.09375 8.125 C 0.0703125 8.625 0.296875 9.09375 0.765625 9.53125 C 1.253906 9.976562 1.734375 10.15625 2.203125 10.0625 C 2.671875 9.96875 3.195312 9.609375 3.78125 8.984375 L 4.796875 7.890625 Z M 2.03125 5.328125 "/></g></g></g><g fill="#fff5ea" fill-opacity="1"><g transform="translate(210.38119, 206.449371)"><g/></g></g><g fill="#fff5ea" fill-opacity="1"><g transform="translate(204.770818, 211.028926)"><g><path d="M -0.546875 6.265625 L -0.0625 11.859375 L -1.09375 12.53125 L -1.65625 5.65625 L -3.75 2.4375 L -2.765625 1.796875 L -0.703125 4.96875 L 5.40625 8.296875 L 4.34375 8.984375 Z M -0.546875 6.265625 "/></g></g></g><g fill="#fff5ea" fill-opacity="1"><g transform="translate(195.282732, 217.02264)"><g><path d="M -7.109375 8.546875 C -7.742188 7.097656 -7.878906 5.796875 -7.515625 4.640625 C -7.148438 3.484375 -6.316406 2.617188 -5.015625 2.046875 C -3.679688 1.460938 -2.46875 1.421875 -1.375 1.921875 C -0.28125 2.421875 0.585938 3.414062 1.234375 4.90625 C 1.878906 6.375 2.015625 7.675781 1.640625 8.8125 C 1.265625 9.945312 0.410156 10.8125 -0.921875 11.40625 C -2.222656 11.976562 -3.421875 12.003906 -4.515625 11.484375 C -5.609375 10.972656 -6.472656 9.992188 -7.109375 8.546875 Z M 0.109375 5.375 C -0.429688 4.144531 -1.101562 3.328125 -1.90625 2.921875 C -2.707031 2.515625 -3.601562 2.53125 -4.59375 2.96875 C -5.601562 3.414062 -6.222656 4.066406 -6.453125 4.921875 C -6.691406 5.785156 -6.539062 6.832031 -6 8.0625 C -5.46875 9.28125 -4.804688 10.09375 -4.015625 10.5 C -3.222656 10.90625 -2.328125 10.890625 -1.328125 10.453125 C -0.328125 10.003906 0.289062 9.347656 0.53125 8.484375 C 0.78125 7.617188 0.640625 6.582031 0.109375 5.375 Z M 0.109375 5.375 "/></g></g></g><g fill="#fff5ea" fill-opacity="1"><g transform="translate(182.165015, 222.424744)"><g><path d="M -6.28125 11.703125 L -7.78125 5.484375 C -8.039062 4.378906 -7.914062 3.429688 -7.40625 2.640625 C -6.894531 1.847656 -6.054688 1.3125 -4.890625 1.03125 C -3.734375 0.75 -2.765625 0.847656 -1.984375 1.328125 C -1.203125 1.816406 -0.675781 2.613281 -0.40625 3.71875 L 1.078125 9.921875 L -0.03125 10.1875 L -1.53125 3.90625 C -1.726562 3.101562 -2.097656 2.535156 -2.640625 2.203125 C -3.179688 1.878906 -3.878906 1.820312 -4.734375 2.03125 C -5.546875 2.226562 -6.117188 2.59375 -6.453125 3.125 C -6.785156 3.664062 -6.851562 4.34375 -6.65625 5.15625 L -5.15625 11.421875 Z M -6.28125 11.703125 "/></g></g></g><g fill="#fff5ea" fill-opacity="1"><g transform="translate(103.522444, 150.75199)"><g><path d="M 11.828125 -43.1875 C 11.828125 -40.90625 12.367188 -38.9375 13.453125 -37.28125 C 14.535156 -35.625 15.863281 -34.238281 17.4375 -33.125 C 19.007812 -32.007812 21.195312 -30.625 24 -28.96875 C 26.96875 -27.195312 29.265625 -25.722656 30.890625 -24.546875 C 32.515625 -23.378906 33.910156 -21.878906 35.078125 -20.046875 C 36.253906 -18.222656 36.84375 -16.023438 36.84375 -13.453125 C 36.84375 -10.765625 36.1875 -8.320312 34.875 -6.125 C 33.5625 -3.925781 31.601562 -2.179688 29 -0.890625 C 26.40625 0.390625 23.222656 1.03125 19.453125 1.03125 C 17.453125 1.03125 15.550781 0.816406 13.75 0.390625 C 11.945312 -0.0351562 9.960938 -0.796875 7.796875 -1.890625 C 7.515625 -2.054688 7.328125 -2.253906 7.234375 -2.484375 C 7.148438 -2.710938 7.082031 -3.054688 7.03125 -3.515625 L 5.734375 -14.65625 L 5.734375 -14.734375 C 5.734375 -14.960938 5.875 -15.09375 6.15625 -15.125 C 6.445312 -15.15625 6.625 -15.054688 6.6875 -14.828125 C 7.257812 -10.878906 8.769531 -7.445312 11.21875 -4.53125 C 13.675781 -1.625 17.050781 -0.171875 21.34375 -0.171875 C 24.363281 -0.171875 26.914062 -1 29 -2.65625 C 31.082031 -4.3125 32.125 -6.910156 32.125 -10.453125 C 32.125 -13.023438 31.550781 -15.238281 30.40625 -17.09375 C 29.269531 -18.945312 27.890625 -20.488281 26.265625 -21.71875 C 24.640625 -22.945312 22.425781 -24.390625 19.625 -26.046875 C 16.882812 -27.648438 14.726562 -29.050781 13.15625 -30.25 C 11.582031 -31.445312 10.238281 -32.945312 9.125 -34.75 C 8.007812 -36.550781 7.453125 -38.707031 7.453125 -41.21875 C 7.453125 -44.070312 8.179688 -46.5 9.640625 -48.5 C 11.097656 -50.5 12.992188 -52 15.328125 -53 C 17.671875 -54 20.1875 -54.5 22.875 -54.5 C 26.019531 -54.5 29.273438 -53.8125 32.640625 -52.4375 C 33.503906 -52.09375 33.9375 -51.609375 33.9375 -50.984375 L 34.703125 -41.90625 C 34.703125 -41.675781 34.546875 -41.5625 34.234375 -41.5625 C 33.921875 -41.5625 33.734375 -41.675781 33.671875 -41.90625 C 33.441406 -44.875 32.328125 -47.53125 30.328125 -49.875 C 28.328125 -52.21875 25.472656 -53.390625 21.765625 -53.390625 C 18.335938 -53.390625 15.820312 -52.390625 14.21875 -50.390625 C 12.625 -48.390625 11.828125 -45.988281 11.828125 -43.1875 Z M 11.828125 -43.1875 "/></g></g></g><g fill="#fff6f2" fill-opacity="1"><g transform="translate(124.326556, 182.417261)"><g><path d="M 31 0.921875 C 25.4375 0.921875 20.597656 -0.210938 16.484375 -2.484375 C 12.378906 -4.753906 9.226562 -7.816406 7.03125 -11.671875 C 4.84375 -15.523438 3.75 -19.75 3.75 -24.34375 C 3.75 -29.289062 4.984375 -33.601562 7.453125 -37.28125 C 9.929688 -40.957031 13.328125 -43.773438 17.640625 -45.734375 C 21.953125 -47.703125 26.789062 -48.6875 32.15625 -48.6875 C 34.957031 -48.6875 37.53125 -48.40625 39.875 -47.84375 C 42.226562 -47.289062 44.222656 -46.503906 45.859375 -45.484375 C 46.210938 -45.222656 46.414062 -45.03125 46.46875 -44.90625 C 46.519531 -44.78125 46.570312 -44.410156 46.625 -43.796875 L 47.546875 -35.21875 C 47.546875 -35.0625 47.40625 -34.957031 47.125 -34.90625 C 46.84375 -34.851562 46.675781 -34.90625 46.625 -35.0625 C 45.5 -39.300781 43.722656 -42.441406 41.296875 -44.484375 C 38.878906 -46.523438 35.472656 -47.546875 31.078125 -47.546875 C 26.847656 -47.546875 23.046875 -46.640625 19.671875 -44.828125 C 16.304688 -43.015625 13.648438 -40.4375 11.703125 -37.09375 C 9.765625 -33.75 8.796875 -29.832031 8.796875 -25.34375 C 8.796875 -21.101562 9.675781 -17.066406 11.4375 -13.234375 C 13.207031 -9.410156 15.914062 -6.273438 19.5625 -3.828125 C 23.207031 -1.378906 27.710938 -0.15625 33.078125 -0.15625 C 36.847656 -0.15625 39.507812 -0.878906 41.0625 -2.328125 C 42.625 -3.785156 43.40625 -6.195312 43.40625 -9.5625 C 43.40625 -12.21875 43.226562 -14.066406 42.875 -15.109375 C 42.519531 -16.160156 41.753906 -16.863281 40.578125 -17.21875 C 39.398438 -17.582031 37.359375 -17.765625 34.453125 -17.765625 C 34.148438 -17.765625 34 -17.96875 34 -18.375 C 34 -18.53125 34.035156 -18.671875 34.109375 -18.796875 C 34.179688 -18.921875 34.269531 -18.984375 34.375 -18.984375 C 38.300781 -18.734375 41.46875 -18.609375 43.875 -18.609375 C 46.164062 -18.609375 48.613281 -18.679688 51.21875 -18.828125 C 51.320312 -18.828125 51.410156 -18.765625 51.484375 -18.640625 C 51.566406 -18.515625 51.609375 -18.398438 51.609375 -18.296875 C 51.609375 -17.941406 51.476562 -17.765625 51.21875 -17.765625 C 49.894531 -17.816406 48.953125 -17.648438 48.390625 -17.265625 C 47.828125 -16.878906 47.46875 -16.097656 47.3125 -14.921875 C 47.15625 -13.753906 47.078125 -11.710938 47.078125 -8.796875 C 47.078125 -6.503906 47.164062 -4.875 47.34375 -3.90625 C 47.53125 -2.9375 47.625 -2.320312 47.625 -2.0625 C 47.625 -1.757812 47.570312 -1.554688 47.46875 -1.453125 C 47.363281 -1.347656 47.132812 -1.242188 46.78125 -1.140625 C 40.601562 0.234375 35.34375 0.921875 31 0.921875 Z M 31 0.921875 "/></g></g></g><g clip-path="url(#a9b1d25130)"><g clip-path="url(#98ae8dcb7d)"><g clip-path="url(#9989f935a6)"><path fill="#a61a1a" d="M 141.882812 121.484375 L 154.191406 128.914062 L 126.363281 175.023438 L 114.054688 167.59375 Z M 141.882812 121.484375 " fill-opacity="1" fill-rule="nonzero"/></g></g></g><g clip-path="url(#7ef3e81300)"><g clip-path="url(#ebb4e10e8b)"><g clip-path="url(#1a5d8da1f1)"><path fill="#a61a1a" d="M 125.664062 128.824219 L 142.4375 138.945312 L 132.117188 156.046875 L 115.347656 145.925781 Z M 125.664062 128.824219 " fill-opacity="1" fill-rule="nonzero"/></g></g></g><g clip-path="url(#1a3f3bb630)"><g clip-path="url(#506578500f)"><g clip-path="url(#089a009048)"><path fill="#a61a1a" d="M 143.34375 129.738281 L 160.097656 139.847656 L 150.886719 155.113281 L 134.132812 145 Z M 143.34375 129.738281 " fill-opacity="1" fill-rule="nonzero"/></g></g></g><path stroke-linecap="butt" transform="matrix(0.430294, -0.612673, 0.612673, 0.430294, 113.291111, 174.136325)" fill="none" stroke-linejoin="miter" d="M -0.000873005 0.998262 L 119.35475 1.000446 " stroke="#fff6f2" stroke-width="2" stroke-opacity="1" stroke-miterlimit="4"/></svg>